<?xml version="1.0" encoding="UTF-8"?>
<svg id="Gamelife_x5F_logo_x5F_color" xmlns="http://www.w3.org/2000/svg" version="1.1" viewBox="0 0 629.3 167">
  <!-- Generator: Adobe Illustrator 30.2.1, SVG Export Plug-In . SVG Version: 2.1.1 Build 1)  -->
  <defs>
    <style>
      .st0 {
        fill: #fe5100;
      }
    </style>
  </defs>
  <g id="Livello_1-2">
    <g>
      <path d="M67,107.4c-7.9,0-13.3-3.6-16.4-10.9-1.7-3.9-2.5-8.4-2.5-13.4s.8-10.7,2.3-14.6c3-7.4,8.4-11.1,16.3-11.1s10.4,2.2,13.8,6.4c3.4,4.3,5.2,10.5,5.2,18.7s-1.8,15.1-5.4,19c-3.6,4-8.1,6-13.3,6h0ZM61.3,37.6c-11.7,0-20.7,4.4-27.1,13.1-6.4,8.8-9.6,19.5-9.6,32.3s3.3,23.9,9.9,31.6c6.6,7.8,15.5,11.7,26.6,11.7s13-1.7,17.5-5.2c2.5-1.8,4.8-4.6,7-8.3v5.6c0,8.3-.9,14.1-2.7,17.6-2.7,5.4-8.1,8.2-16.3,8.2s-9.8-1-12.2-3.1c-1.4-1.2-2.4-3.1-3.1-5.7h-24.5c.7,8.6,4.6,15,11.5,19.4,7,4.3,16,6.5,27,6.5,18.3,0,30.6-4.8,37-14.6,3.8-5.6,5.6-14,5.6-25.2V39.6h-22.1v12.5c-3.4-6.1-7.8-10.2-13.3-12.5-3.2-1.3-7-2-11.3-2h0Z"/>
      <path d="M164,92.3c-.2,7.5-2.3,12.7-6.5,15.6-4.1,2.9-8.6,4.3-13.6,4.3s-5.7-.9-7.9-2.6c-2.2-1.7-3.2-4.5-3.2-8.3s1.8-7.5,5.3-9.5c2.1-1.2,5.6-2.2,10.3-3.1l5.1-.9c2.5-.5,4.6-1,6-1.5,1.5-.5,2.9-1.3,4.3-2.2v8.4h0ZM142.5,74.4c-8.8,1.1-15.4,2.9-19.9,5.5-8.2,4.7-12.4,12.4-12.4,23s2.5,14.5,7.7,18.9c5.1,4.5,11.6,6.7,19.5,6.7s11.7-1.4,16.5-4.2c4.1-2.4,7.7-5.2,10.8-8.6.2,2,.4,3.7.6,5.2s.7,3.2,1.4,4.9h24.5v-3.3c-1.5-.7-2.6-1.6-3.3-2.6-.7-1.1-1.2-3.1-1.3-6-.1-3.9-.2-7.2-.2-10v-39.5c0-10.4-3.7-17.4-11.1-21.2-7.4-3.8-15.8-5.6-25.3-5.6-14.6,0-24.8,3.8-30.8,11.4-3.8,4.8-5.9,11.1-6.4,18.6h21.8c.5-3.3,1.6-5.9,3.2-7.9,2.2-2.6,6.1-3.9,11.4-3.9s8.4.7,10.9,2c2.5,1.3,3.7,3.8,3.7,7.3s-1.6,5-4.8,6.4c-1.8.8-4.8,1.4-9,2l-7.7.9s0,0,0,0Z"/>
      <path d="M292.5,37.7c-5.7,0-10.9,1.2-15.5,3.6-4.4,2.4-8.1,6.1-11,11.2-1.7-4.2-4.2-7.7-7.4-10.4-4.1-2.9-9.4-4.3-16-4.3s-12.6,1.7-17,5.1c-2.5,1.9-5.1,5.1-7.9,9.6v-12.6h-21.9v86.1h22.9v-51.9c0-4.7.6-8.3,1.8-10.6,2.2-4.2,6.5-6.3,12.9-6.3s9.2,2.1,11.1,6.3c1.1,2.3,1.6,6,1.6,11.1v51.4h22.7v-51.3c0-3.9.6-7.2,1.8-9.9,2.4-5.2,6.7-7.7,12.9-7.7s9.1,2,11.1,6c1.1,2.1,1.6,4.8,1.6,8.1v54.9h23.1l.2-54.4c0-5.6-.3-9.9-.8-12.7-.9-4.4-2.5-8.1-4.9-11.1-3-3.7-6.3-6.3-10.1-7.8-3.7-1.5-7.4-2.2-11.2-2.2h0Z"/>
      <path d="M365.5,56c5.3,0,9.8,1.5,13.4,4.6s5.6,7.6,6,13.5h-38.9c.8-5.6,2.8-10,6-13.3,3.2-3.2,7.7-4.9,13.5-4.9h0ZM365.4,37.4c-12.6,0-22.9,4-30.8,12-7.9,8-11.8,19.4-11.8,34.3s4.4,27.4,13.1,34.5c8.8,7.1,18.9,10.6,30.3,10.6s24.7-4.2,32.4-12.6c5-5.3,7.7-10.4,8.3-15.6h-22.9c-1.3,2.5-2.9,4.5-4.7,5.9-3.2,2.6-7.4,3.9-12.5,3.9s-9-1.1-12.4-3.2c-5.7-3.5-8.7-9.6-9-18.2h62.7c.1-7.4-.2-13.1-.7-17.1-1.1-6.7-3.3-12.7-6.9-17.8-3.9-5.8-8.9-10.1-14.9-12.7-6-2.7-12.7-4-20.3-4h0Z"/>
      <polygon class="st0" points="439.8 9.3 417.1 9.3 417.1 125.9 439.8 125.9 439.8 9.3 439.8 9.3"/>
      <polygon class="st0" points="449.5 125.9 472.4 125.9 472.4 39.6 449.5 39.6 449.5 125.9 449.5 125.9"/>
      <path class="st0" d="M518.5,8c-12.5,0-20.4,2.6-23.7,7.7-3.1,3.5-4.7,9.9-4.7,19.1v5.6h-12.3v16h12.6v69.6h22.4V56.3h14.9v-16h-14.9v-7.3c0-1.7.6-3.2,1.7-4.6,1.1-1.4,3.2-2.1,6.2-2,3,0,5.1.2,6.4.4V8.4c-2-.2-3.6-.3-4.8-.3-1.2,0-2.5-.1-3.9-.1h0Z"/>
      <path class="st0" d="M571.2,56c5.3,0,9.8,1.5,13.4,4.6s5.6,7.6,6,13.5h-38.9c.8-5.6,2.8-10,6-13.3,3.2-3.2,7.7-4.9,13.5-4.9h0ZM571.2,37.4c-12.6,0-22.9,4-30.8,12-7.9,8-11.8,19.4-11.8,34.3s4.4,27.4,13.1,34.5c8.8,7.1,18.9,10.6,30.3,10.6s24.7-4.2,32.4-12.6c5-5.3,7.7-10.4,8.3-15.6h-22.9c-1.3,2.5-2.9,4.5-4.7,5.9-3.2,2.6-7.4,3.9-12.5,3.9s-9-1.1-12.4-3.2c-5.7-3.5-8.7-9.6-9-18.2h62.7c.1-7.4-.1-13.1-.7-17.1-1.1-6.7-3.3-12.7-6.8-17.8-3.9-5.8-8.9-10.1-14.9-12.7-6-2.7-12.7-4-20.3-4h0Z"/>
      <polygon class="st0" points="449.5 26.9 472.4 26.9 472.4 9.3 449.5 9.3 449.5 26.9 449.5 26.9"/>
    </g>
  </g>
</svg>